<svg xmlns="http://www.w3.org/2000/svg" xmlns:xlink="http://www.w3.org/1999/xlink" viewBox="0,0,256,256" width="120px" height="120px" fill-rule="nonzero"><g fill="#000000" fill-rule="nonzero" stroke="none" stroke-width="1" stroke-linecap="butt" stroke-linejoin="miter" stroke-miterlimit="10" stroke-dasharray="" stroke-dashoffset="0" font-family="none" font-weight="none" font-size="none" text-anchor="none" style="mix-blend-mode: normal"><g transform="scale(10.66667,10.66667)"><path d="M2.993,20.993v-17.986h18v17.987h-18zM19.993,17.473c0,-1.507 -0.853,-2.173 -2.373,-2.84l-0.44,-0.187c-0.773,-0.333 -1.107,-0.56 -1.107,-1.093c0,-0.44 0.333,-0.773 0.853,-0.773c0.52,0 0.853,0.214 1.16,0.773l1.387,-0.907c-0.587,-1.053 -1.4,-1.453 -2.547,-1.453c-1.587,0 -2.6,1.04 -2.6,2.387c0,1.48 0.853,2.173 2.133,2.733l0.453,0.187c0.813,0.36 1.213,0.587 1.213,1.2c0,0.44 -0.533,0.693 -1.133,0.693c-0.88,0 -1.293,-0.4 -1.68,-1.04l-1.4,0.947c0.533,1.053 1.467,1.893 3.12,1.893c1.694,0 2.961,-0.893 2.961,-2.52zM12.993,17.154v-6.16h-2v5.867c0,0.934 -0.307,1.214 -0.92,1.214c-0.64,0 -1.08,-0.4 -1.373,-0.92l-1.507,0.92c0.44,0.92 1.507,1.92 3,1.92c1.64,-0.002 2.8,-0.921 2.8,-2.841z"></path></g></g></svg>